<?xml version="1.0" standalone="no"?>
<!DOCTYPE svg PUBLIC "-//W3C//DTD SVG 20010904//EN"
 "http://www.w3.org/TR/2001/REC-SVG-20010904/DTD/svg10.dtd">
<svg version="1.0" xmlns="http://www.w3.org/2000/svg"
 width="512.000000pt" height="512.000000pt" viewBox="0 0 512.000000 512.000000"
 preserveAspectRatio="xMidYMid meet">
<metadata>
Created by potrace 1.14, written by Peter Selinger 2001-2017
</metadata>
<g transform="translate(0.000000,512.000000) scale(0.100000,-0.100000)"
fill="#000000" stroke="none">
<path d="M469 5105 c-222 -54 -387 -214 -448 -435 -21 -75 -21 -76 -19 -2130
l3 -2055 22 -65 c64 -188 212 -334 398 -393 l70 -22 2065 0 2065 0 70 22 c189
59 338 209 398 398 l22 70 0 2075 0 2075 -22 59 c-40 104 -90 180 -160 247
-80 75 -159 119 -263 148 -74 21 -83 21 -2109 20 -1677 -1 -2046 -3 -2092 -14z"/>
</g>
</svg>
