<svg xmlns="http://www.w3.org/2000/svg" viewBox="0 0 500 500"><g id="freepik--background-simple--inject-33"><path d="M90.93,181C78,133.41,108.06,66.88,158.94,53c52.61-14.31,73.88,57.68,117.4,77.48C314.39,147.83,392,89.31,414.12,145.34c25.57,64.73-96.72,153.34-180.26,147.72C181.59,289.54,109.66,249.83,90.93,181Z" style="fill:#77C649"></path><path d="M90.93,181C78,133.41,108.06,66.88,158.94,53c52.61-14.31,73.88,57.68,117.4,77.48C314.39,147.83,392,89.31,414.12,145.34c25.57,64.73-96.72,153.34-180.26,147.72C181.59,289.54,109.66,249.83,90.93,181Z" style="fill:#fff;opacity:0.9"></path></g><g id="freepik--Shadow--inject-33"><ellipse id="freepik--path--inject-33" cx="245.18" cy="412.39" rx="193.89" ry="11.32" style="fill:#f5f5f5"></ellipse></g><g id="freepik--Trees--inject-33"><polygon points="379.34 159.5 376.5 382.6 387.79 382.6 382.58 159.5 379.34 159.5" style="fill:#263238"></polygon><polygon points="379.34 159.5 376.5 382.6 387.79 382.6 382.58 159.5 379.34 159.5" style="fill:#fff;opacity:0.2"></polygon><path d="M380.65,154.77s-12.95,23.65-23.9,28.13,8.67,4.7,10.71-3c0,0,6.26,1,9-7.22,0,0,.17,10.46,4.15.5,0,0,11.21,14.69,8.22,3.24,0,0,5.23,8,8.71,6,0,0,3.16,4.46,8.22,3.63C410.61,185.24,392.35,178.67,380.65,154.77Z" style="fill:#77C649"></path><path d="M380.65,154.77s-12.95,23.65-23.9,28.13,8.67,4.7,10.71-3c0,0,6.26,1,9-7.22,0,0,.17,10.46,4.15.5,0,0,11.21,14.69,8.22,3.24,0,0,5.23,8,8.71,6,0,0,3.16,4.46,8.22,3.63C410.61,185.24,392.35,178.67,380.65,154.77Z" style="fill:#fff;opacity:0.5"></path><path d="M381,180.18s14.89,27.2,27.48,32.35-10,3.41-12.31-5.42c0,0-7.2,3.12-10.4-6.32,0,0,3.77,17.9-4.77.58,0,0-12.88,16.89-9.45,3.72,0,0-11.06,13.35-8,2.89,0,0-6.35,9.13-11.44,8.15C346.57,215.07,367.53,207.67,381,180.18Z" style="fill:#77C649"></path><path d="M381,180.18s14.89,27.2,27.48,32.35-10,3.41-12.31-5.42c0,0-7.2,3.12-10.4-6.32,0,0,3.77,17.9-4.77.58,0,0-12.88,16.89-9.45,3.72,0,0-11.06,13.35-8,2.89,0,0-6.35,9.13-11.44,8.15C346.57,215.07,367.53,207.67,381,180.18Z" style="fill:#fff;opacity:0.4"></path><path d="M380.73,207.6s16.23,31.3,31.65,37.6-10.21,6.16-13.08-4.65c0,0-8.82,3.83-12.73-7.72,0,0,8.07,29.52-5.84.7,0,0-15.77,20.67-11.56,4.56,0,0-13.54,16.34-9.83,3.53,0,0-9.65,9.19-14,8C338.74,247.77,364.26,241.24,380.73,207.6Z" style="fill:#77C649"></path><path d="M380.73,207.6s16.23,31.3,31.65,37.6-10.21,6.16-13.08-4.65c0,0-8.82,3.83-12.73-7.72,0,0,8.07,29.52-5.84.7,0,0-15.77,20.67-11.56,4.56,0,0-13.54,16.34-9.83,3.53,0,0-9.65,9.19-14,8C338.74,247.77,364.26,241.24,380.73,207.6Z" style="fill:#fff;opacity:0.30000000000000004"></path><path d="M381.9,241.22s-22.48,41.07-41.5,48.85,15.05,5.14,18.59-8.2c0,0,9.13,4.55,15.71-9.53,0,0-13.05,31.76,7.2.87,0,0,19.45,25.5,14.27,5.62,0,0,16.7,20.16,12.12,4.36,0,0,11.87,13.8,17.27,12.31C433.72,293.25,402.22,282.72,381.9,241.22Z" style="fill:#77C649"></path><path d="M381.9,241.22s-22.48,41.07-41.5,48.85,15.05,5.14,18.59-8.2c0,0,9.13,4.55,15.71-9.53,0,0-13.05,31.76,7.2.87,0,0,19.45,25.5,14.27,5.62,0,0,16.7,20.16,12.12,4.36,0,0,11.87,13.8,17.27,12.31C433.72,293.25,402.22,282.72,381.9,241.22Z" style="fill:#fff;opacity:0.2"></path><path d="M382.29,277.6s19.77,39.4,39.86,47.62-11.92,9.42-15.65-4.67c0,0-11.5,5-16.6-10.07,0,0,10.52,38.48-7.61.92,0,0-20.55,26.94-15.07,5.93,0,0-17.64,21.3-12.8,4.61,0,0-14.94,14.57-18.25,13C328.1,331.12,360.83,321.44,382.29,277.6Z" style="fill:#77C649"></path><path d="M382.29,277.6s19.77,39.4,39.86,47.62-11.92,9.42-15.65-4.67c0,0-11.5,5-16.6-10.07,0,0,10.52,38.48-7.61.92,0,0-20.55,26.94-15.07,5.93,0,0-17.64,21.3-12.8,4.61,0,0-14.94,14.57-18.25,13C328.1,331.12,360.83,321.44,382.29,277.6Z" style="fill:#fff;opacity:0.1"></path><polygon points="323.89 207.51 321.66 382.6 330.52 382.6 326.43 207.51 323.89 207.51" style="fill:#263238"></polygon><polygon points="323.89 207.51 321.66 382.6 330.52 382.6 326.43 207.51 323.89 207.51" style="fill:#fff;opacity:0.2"></polygon><path d="M324.92,203.8s-10.16,18.56-18.76,22.08,6.8,3.68,8.4-2.34c0,0,4.92.77,7.1-5.67,0,0,.13,8.21,3.26.39,0,0,8.79,11.53,6.45,2.54,0,0,4.1,6.25,6.83,4.69,0,0,2.48,3.49,6.45,2.85C348.43,227.72,334.1,222.56,324.92,203.8Z" style="fill:#77C649"></path><path d="M324.92,203.8s-10.16,18.56-18.76,22.08,6.8,3.68,8.4-2.34c0,0,4.92.77,7.1-5.67,0,0,.13,8.21,3.26.39,0,0,8.79,11.53,6.45,2.54,0,0,4.1,6.25,6.83,4.69,0,0,2.48,3.49,6.45,2.85C348.43,227.72,334.1,222.56,324.92,203.8Z" style="fill:#fff;opacity:0.5"></path><path d="M325.18,223.75s11.69,21.34,21.57,25.38-7.82,2.68-9.66-4.25c0,0-5.66,2.45-8.16-5,0,0,3,14.05-3.75.45,0,0-10.11,13.26-7.41,2.92,0,0-8.68,10.48-6.3,2.27,0,0-5,7.17-9,6.4C298.17,251.12,314.62,245.31,325.18,223.75Z" style="fill:#77C649"></path><path d="M325.18,223.75s11.69,21.34,21.57,25.38-7.82,2.68-9.66-4.25c0,0-5.66,2.45-8.16-5,0,0,3,14.05-3.75.45,0,0-10.11,13.26-7.41,2.92,0,0-8.68,10.48-6.3,2.27,0,0-5,7.17-9,6.4C298.17,251.12,314.62,245.31,325.18,223.75Z" style="fill:#fff;opacity:0.4"></path><path d="M325,245.26s12.73,24.56,24.83,29.51-8,4.84-10.26-3.65c0,0-6.92,3-10-6.06,0,0,6.33,23.17-4.58.55,0,0-12.38,16.23-9.08,3.58,0,0-10.62,12.82-7.71,2.77,0,0-7.57,7.21-11,6.27C292,276.79,312.05,271.66,325,245.26Z" style="fill:#77C649"></path><path d="M325,245.26s12.73,24.56,24.83,29.51-8,4.84-10.26-3.65c0,0-6.92,3-10-6.06,0,0,6.33,23.17-4.58.55,0,0-12.38,16.23-9.08,3.58,0,0-10.62,12.82-7.71,2.77,0,0-7.57,7.21-11,6.27C292,276.79,312.05,271.66,325,245.26Z" style="fill:#fff;opacity:0.30000000000000004"></path><path d="M325.9,271.64S308.25,303.88,293.33,310s11.81,4,14.58-6.43c0,0,7.17,3.57,12.33-7.48,0,0-10.24,24.92,5.66.68,0,0,15.26,20,11.19,4.41,0,0,13.11,15.82,9.52,3.42,0,0,9.31,10.83,13.55,9.66C366.56,312.48,341.84,304.21,325.9,271.64Z" style="fill:#77C649"></path><path d="M325.9,271.64S308.25,303.88,293.33,310s11.81,4,14.58-6.43c0,0,7.17,3.57,12.33-7.48,0,0-10.24,24.92,5.66.68,0,0,15.26,20,11.19,4.41,0,0,13.11,15.82,9.52,3.42,0,0,9.31,10.83,13.55,9.66C366.56,312.48,341.84,304.21,325.9,271.64Z" style="fill:#fff;opacity:0.2"></path><path d="M326.2,300.2s15.51,30.92,31.28,37.37-9.35,7.39-12.28-3.67c0,0-9,3.92-13-7.9,0,0,8.25,30.2-6,.72,0,0-16.12,21.15-11.82,4.66,0,0-13.85,16.71-10.05,3.61,0,0-11.72,11.44-14.32,10.21C283.67,342.2,309.36,334.61,326.2,300.2Z" style="fill:#77C649"></path><path d="M326.2,300.2s15.51,30.92,31.28,37.37-9.35,7.39-12.28-3.67c0,0-9,3.92-13-7.9,0,0,8.25,30.2-6,.72,0,0-16.12,21.15-11.82,4.66,0,0-13.85,16.71-10.05,3.61,0,0-11.72,11.44-14.32,10.21C283.67,342.2,309.36,334.61,326.2,300.2Z" style="fill:#fff;opacity:0.1"></path><polygon points="85.91 226.32 83.92 382.6 91.83 382.6 88.18 226.32 85.91 226.32" style="fill:#263238"></polygon><polygon points="85.91 226.32 83.92 382.6 91.83 382.6 88.18 226.32 85.91 226.32" style="fill:#fff;opacity:0.2"></polygon><path d="M86.83,223s-9.07,16.57-16.75,19.71,6.08,3.29,7.5-2.09c0,0,4.39.69,6.34-5.06,0,0,.11,7.32,2.91.35,0,0,7.84,10.29,5.75,2.26,0,0,3.66,5.59,6.11,4.19,0,0,2.2,3.12,5.75,2.54C107.81,244.36,95,239.75,86.83,223Z" style="fill:#77C649"></path><path d="M86.83,223s-9.07,16.57-16.75,19.71,6.08,3.29,7.5-2.09c0,0,4.39.69,6.34-5.06,0,0,.11,7.32,2.91.35,0,0,7.84,10.29,5.75,2.26,0,0,3.66,5.59,6.11,4.19,0,0,2.2,3.12,5.75,2.54C107.81,244.36,95,239.75,86.83,223Z" style="fill:#fff;opacity:0.5"></path><path d="M87.06,240.81s10.43,19.06,19.25,22.66-7,2.39-8.62-3.8c0,0-5,2.19-7.29-4.42,0,0,2.65,12.54-3.34.4,0,0-9,11.84-6.62,2.61,0,0-7.74,9.35-5.62,2,0,0-4.45,6.4-8,5.71C63,265.25,77.64,260.07,87.06,240.81Z" style="fill:#77C649"></path><path d="M87.06,240.81s10.43,19.06,19.25,22.66-7,2.39-8.62-3.8c0,0-5,2.19-7.29-4.42,0,0,2.65,12.54-3.34.4,0,0-9,11.84-6.62,2.61,0,0-7.74,9.35-5.62,2,0,0-4.45,6.4-8,5.71C63,265.25,77.64,260.07,87.06,240.81Z" style="fill:#fff;opacity:0.4"></path><path d="M86.88,260s11.37,21.92,22.17,26.34-7.16,4.31-9.16-3.26c0,0-6.18,2.68-8.92-5.41,0,0,5.65,20.68-4.09.49,0,0-11,14.48-8.1,3.19,0,0-9.48,11.45-6.88,2.48,0,0-6.76,6.44-9.81,5.59C57.46,288.16,75.35,283.58,86.88,260Z" style="fill:#77C649"></path><path d="M86.88,260s11.37,21.92,22.17,26.34-7.16,4.31-9.16-3.26c0,0-6.18,2.68-8.92-5.41,0,0,5.65,20.68-4.09.49,0,0-11,14.48-8.1,3.19,0,0-9.48,11.45-6.88,2.48,0,0-6.76,6.44-9.81,5.59C57.46,288.16,75.35,283.58,86.88,260Z" style="fill:#fff;opacity:0.30000000000000004"></path><path d="M87.7,283.57S72,312.33,58.63,317.78s10.55,3.61,13-5.74c0,0,6.4,3.19,11-6.67,0,0-9.14,22.24,5,.6,0,0,13.63,17.87,10,3.94,0,0,11.7,14.12,8.49,3.06,0,0,8.32,9.66,12.1,8.62C124,320,101.93,312.64,87.7,283.57Z" style="fill:#77C649"></path><path d="M87.7,283.57S72,312.33,58.63,317.78s10.55,3.61,13-5.74c0,0,6.4,3.19,11-6.67,0,0-9.14,22.24,5,.6,0,0,13.63,17.87,10,3.94,0,0,11.7,14.12,8.49,3.06,0,0,8.32,9.66,12.1,8.62C124,320,101.93,312.64,87.7,283.57Z" style="fill:#fff;opacity:0.2"></path><path d="M88,309.05s13.84,27.6,27.91,33.36-8.35,6.6-11-3.27c0,0-8.05,3.49-11.62-7.05,0,0,7.36,26.94-5.33.64,0,0-14.4,18.87-10.56,4.15,0,0-12.36,14.92-9,3.23,0,0-10.46,10.21-12.78,9.11C50,346.54,72.94,339.76,88,309.05Z" style="fill:#77C649"></path><path d="M88,309.05s13.84,27.6,27.91,33.36-8.35,6.6-11-3.27c0,0-8.05,3.49-11.62-7.05,0,0,7.36,26.94-5.33.64,0,0-14.4,18.87-10.56,4.15,0,0-12.36,14.92-9,3.23,0,0-10.46,10.21-12.78,9.11C50,346.54,72.94,339.76,88,309.05Z" style="fill:#fff;opacity:0.1"></path></g><g id="freepik--Fence--inject-33"><polygon points="97.29 274.34 94.48 274.34 87.56 279.02 87.56 382.6 90.36 382.6 101.4 382.6 104.21 382.6 104.21 279.02 97.29 274.34" style="fill:#77C649"></polygon><polygon points="97.29 274.34 94.48 274.34 87.56 279.02 87.56 382.6 90.36 382.6 101.4 382.6 104.21 382.6 104.21 279.02 97.29 274.34" style="fill:#fff;opacity:0.8"></polygon><polygon points="101.4 382.6 87.56 382.6 87.56 279.02 94.48 274.34 101.4 279.02 101.4 382.6" style="fill:#fff;opacity:0.5"></polygon><polygon points="200.01 274.34 197.2 274.34 190.28 279.02 190.28 382.6 193.09 382.6 204.13 382.6 206.94 382.6 206.94 279.02 200.01 274.34" style="fill:#77C649"></polygon><polygon points="200.01 274.34 197.2 274.34 190.28 279.02 190.28 382.6 193.09 382.6 204.13 382.6 206.94 382.6 206.94 279.02 200.01 274.34" style="fill:#fff;opacity:0.8"></polygon><polygon points="204.13 382.6 190.28 382.6 190.28 279.02 197.2 274.34 204.13 279.02 204.13 382.6" style="fill:#fff;opacity:0.5"></polygon><polygon points="302.74 274.34 299.93 274.34 293 279.02 293 382.6 295.81 382.6 306.85 382.6 309.66 382.6 309.66 279.02 302.74 274.34" style="fill:#77C649"></polygon><polygon points="302.74 274.34 299.93 274.34 293 279.02 293 382.6 295.81 382.6 306.85 382.6 309.66 382.6 309.66 279.02 302.74 274.34" style="fill:#fff;opacity:0.8"></polygon><polygon points="306.85 382.6 293 382.6 293 279.02 299.93 274.34 306.85 279.02 306.85 382.6" style="fill:#fff;opacity:0.5"></polygon><polygon points="405.46 274.34 402.65 274.34 395.73 279.02 395.73 382.6 398.54 382.6 409.58 382.6 412.39 382.6 412.39 279.02 405.46 274.34" style="fill:#77C649"></polygon><polygon points="405.46 274.34 402.65 274.34 395.73 279.02 395.73 382.6 398.54 382.6 409.58 382.6 412.39 382.6 412.39 279.02 405.46 274.34" style="fill:#fff;opacity:0.8"></polygon><polygon points="409.58 382.6 395.73 382.6 395.73 279.02 402.65 274.34 409.58 279.02 409.58 382.6" style="fill:#fff;opacity:0.5"></polygon><polygon points="437.19 358.14 60.01 358.14 60.01 371.2 61.88 374.01 439.07 374.01 439.07 360.95 437.19 358.14" style="fill:#77C649"></polygon><polygon points="437.19 320.45 60.01 327.01 60.01 340.07 61.88 342.88 439.07 336.32 439.07 323.26 437.19 320.45" style="fill:#77C649"></polygon><polygon points="437.19 291.19 60.01 286.51 60.01 299.57 61.88 302.38 439.07 307.06 439.07 294 437.19 291.19" style="fill:#77C649"></polygon><g style="opacity:0.8"><polygon points="437.19 358.14 60.01 358.14 60.01 371.2 61.88 374.01 439.07 374.01 439.07 360.95 437.19 358.14" style="fill:#fff"></polygon><polygon points="437.19 320.45 60.01 327.01 60.01 340.07 61.88 342.88 439.07 336.32 439.07 323.26 437.19 320.45" style="fill:#fff"></polygon><polygon points="437.19 291.19 60.01 286.51 60.01 299.57 61.88 302.38 439.07 307.06 439.07 294 437.19 291.19" style="fill:#fff"></polygon></g><polygon points="437.19 304.25 60.01 299.57 60.01 286.51 437.19 291.19 437.19 304.25" style="fill:#fff;opacity:0.5"></polygon><rect x="60.01" y="358.15" width="377.19" height="13.05" style="fill:#fff;opacity:0.5"></rect><polygon points="437.19 333.51 60.01 340.07 60.01 327.01 437.19 320.45 437.19 333.51" style="fill:#fff;opacity:0.5"></polygon></g><g id="freepik--Character--inject-33"><path d="M230.76,217.17c-9.56,23.11-32.51,42.86-58.2,44.46-14.75.92-29.14-3.5-42.29-9.88-.9-.44-1.7.91-.79,1.35,20.53,10,44.09,14.44,65.46,4.36,13.78-6.5,24.81-18,32.63-30.88a65.8,65.8,0,0,0,4.71-9c.38-.93-1.14-1.34-1.52-.41Z" style="fill:#77C649"></path><g style="opacity:0.5"><path d="M230.76,217.17c-9.56,23.11-32.51,42.86-58.2,44.46-14.75.92-29.14-3.5-42.29-9.88-.9-.44-1.7.91-.79,1.35,20.53,10,44.09,14.44,65.46,4.36,13.78-6.5,24.81-18,32.63-30.88a65.8,65.8,0,0,0,4.71-9c.38-.93-1.14-1.34-1.52-.41Z"></path></g><path d="M274,314.84s9.84,1.83,12.14,10.21,8,24.29,8.36,32.72c.46,11-5.27,32.46-13.06,42.14s-7.29,12.48-7.29,12.48h14.4l1.1-5.41s-1.06-6.22,2.1-8a7.85,7.85,0,0,0,4-4.89c1.76-7.14,5.58-20.85,10.35-26.91,6.6-8.37-2.47-40.22,4.23-56.36s-35.72-4.36-35.72-4.36Z" style="fill:#77C649"></path><path d="M274,314.84s9.84,1.83,12.14,10.21,8,24.29,8.36,32.72c.46,11-5.27,32.46-13.06,42.14s-7.29,12.48-7.29,12.48h14.4l1.1-5.41s-1.06-6.22,2.1-8a7.85,7.85,0,0,0,4-4.89c1.76-7.14,5.58-20.85,10.35-26.91,6.6-8.37-2.47-40.22,4.23-56.36s-35.72-4.36-35.72-4.36Z" style="fill:#fff;opacity:0.30000000000000004"></path><path d="M293.66,376.88a3.76,3.76,0,0,0-1.37-2.05c-2.3,9.41-6.21,19.32-10.84,25.08-7.79,9.69-7.29,12.48-7.29,12.48h14.4l1.1-5.41s-1.06-6.22,2.1-8a7.85,7.85,0,0,0,4-4.89A134.58,134.58,0,0,1,301.79,375C299.07,375,294.24,379,293.66,376.88Z" style="fill:#fff;opacity:0.5"></path><path d="M274.58,306.47l-.57,8.37s9.84,1.83,12.14,10.21c.44,1.59,1,3.45,1.62,5.47,4.09-2.58,13.72-8.56,20.55-12a32.46,32.46,0,0,1,2-7.71C317,294.69,274.58,306.47,274.58,306.47Z" style="opacity:0.1"></path><path d="M161.68,341.89c5.49-11.47,35.51-6,45.37-23l-22.34-10.13s-35.25,17.46-34.55,32.11c.62,13.05,10.08,17,13.64,26.77a8.47,8.47,0,0,0,4.92,5,21,21,0,0,1,9.36,7.33A30.22,30.22,0,0,0,190,377.84l-8-12.22s-4.88,11.17-9.07-3.84C172.85,361.78,159.22,347,161.68,341.89Z" style="fill:#77C649"></path><path d="M161.68,341.89c5.49-11.47,35.51-6,45.37-23l-22.34-10.13s-35.25,17.46-34.55,32.11c.62,13.05,10.08,17,13.64,26.77a8.47,8.47,0,0,0,4.92,5,21,21,0,0,1,9.36,7.33A30.22,30.22,0,0,0,190,377.84l-8-12.22s-4.88,11.17-9.07-3.84C172.85,361.78,159.22,347,161.68,341.89Z" style="fill:#fff;opacity:0.30000000000000004"></path><path d="M178.08,379.93A30.22,30.22,0,0,0,190,377.84l-8-12.22s-4.88,11.17-9.07-3.84c0,0-6.4-6.92-9.64-12.93-.74,2-.75,6-3.3,4.73a8.76,8.76,0,0,0-5.74-.58c3.21,4.92,7.49,8.7,9.63,14.61a8.47,8.47,0,0,0,4.92,5A21,21,0,0,1,178.08,379.93Z" style="fill:#fff;opacity:0.5"></path><path d="M190,377.84l-8-12.22s-1.49,3.41-3.54,3.93c1.12,1.79,2.53,5,3.16,10.27A29.22,29.22,0,0,0,190,377.84Z" style="fill:#263238"></path><path d="M184.71,308.73s-4,2-9.18,5.12c1.87,4.55,6.08,12.21,14.4,16.72,7-2.13,13.44-5.36,17.12-11.71Z" style="opacity:0.1"></path><path d="M124.85,225.73s-5.89-13.09-5.24-16.1,6.74,6.22,10.17,6.91S131.65,225.73,124.85,225.73Z" style="fill:#77C649"></path><path d="M124.85,225.73s-5.89-13.09-5.24-16.1,6.74,6.22,10.17,6.91S131.65,225.73,124.85,225.73Z" style="fill:#fff;opacity:0.30000000000000004"></path><path d="M146.85,244.43S170.4,265.37,177.47,296l38.33-44.49s-11.63-4.2-28.9-20.69-38.22-20.94-52.09-17l6.8,29.34Z" style="fill:#77C649"></path><path d="M146.85,244.43S170.4,265.37,177.47,296l38.33-44.49s-11.63-4.2-28.9-20.69-38.22-20.94-52.09-17l6.8,29.34Z" style="fill:#fff;opacity:0.4"></path><path d="M146.21,227.07l-2.62,7.39-.35,9.08,3.61.89a103.89,103.89,0,0,1,12,13.46C155,234.7,146.21,227.07,146.21,227.07Z" style="opacity:0.1"></path><path d="M134.67,213.8s-10.77,1.26-16,23c0,0-10,19.53-9,23.79s3.25,10.24,11.52,5.62c0,0,3.5,1.89,5.51-1.37s7-10.76,9.51-11.76S169,241.85,134.67,213.8Z" style="fill:#77C649"></path><path d="M134.67,213.8s-10.77,1.26-16,23c0,0-10,19.53-9,23.79s3.25,10.24,11.52,5.62c0,0,3.5,1.89,5.51-1.37s7-10.76,9.51-11.76S169,241.85,134.67,213.8Z" style="fill:#fff;opacity:0.4"></path><path d="M128.47,236c.12.89-.26,1.7-.85,1.76s-1.17-.59-1.28-1.49.26-1.69.85-1.76S128.36,235.06,128.47,236Z" style="fill:#263238"></path><path d="M130.42,233.15a.53.53,0,0,1-.54-.06,4.06,4.06,0,0,0-3.65-.87.52.52,0,0,1-.65-.33h0a.52.52,0,0,1,.33-.65h0a5.18,5.18,0,0,1,4.63,1,.53.53,0,0,1,.08.73Z" style="fill:#263238"></path><path d="M128.79,261.58c-.78-2.48-2.81-5.9-8.15-7.35-8.84-2.4.56-8.36,1.72-11.89s6.11-16.1,4-18.85a2.59,2.59,0,0,0-2.22-.7,49.1,49.1,0,0,0-5.46,14.05s-10,19.53-9,23.79,3.25,10.24,11.52,5.62c0,0,3.5,1.89,5.51-1.37C127.19,264,127.94,262.85,128.79,261.58Z" style="fill:#fff;opacity:0.5"></path><path d="M113.34,264.45s-2.88-5.23-1.18-7.33S112.29,261.21,113.34,264.45Z" style="fill:#263238"></path><path d="M113.34,264.45s-2.88-5.23-1.18-7.33S112.29,261.21,113.34,264.45Z" style="fill:#fff;opacity:0.5"></path><path d="M122.36,264a.52.52,0,0,1,.21-.5,4.07,4.07,0,0,0,1.81-3.28.53.53,0,0,1,.5-.55h0a.53.53,0,0,1,.55.49h0a5.21,5.21,0,0,1-2.24,4.18.53.53,0,0,1-.73-.12Z" style="fill:#263238"></path><path d="M130.23,212.89s-13.49,3.79-13.62,8.77,6.29-2.75,6.29-2.75-3.93,13.41.52,13.22c5.75-.26,2.64-10.34,6.81-13.48S130.23,212.89,130.23,212.89Z" style="fill:#263238"></path><path d="M129.18,221.66s-5.89-13.09-5.24-16.1,6.74,6.22,10.17,6.91S136,221.66,129.18,221.66Z" style="fill:#77C649"></path><path d="M129.18,221.66s-5.89-13.09-5.24-16.1,6.74,6.22,10.17,6.91S136,221.66,129.18,221.66Z" style="fill:#fff;opacity:0.4"></path><path d="M125.71,209.51a.25.25,0,0,1,.46-.17c1.35,2.87,3.67,7.12,5.92,8,3.47,1.4-1.86,4.89-3.6.87A69.38,69.38,0,0,1,125.71,209.51Z" style="opacity:0.5"></path><path d="M188.18,270.08a45.38,45.38,0,0,0-15.61,11.07,87.63,87.63,0,0,1,4.9,14.85l3.27-3.8C187.77,281.32,196,266.92,188.18,270.08Z" style="opacity:0.1"></path><path d="M312.78,260.21a47.44,47.44,0,0,0,18.83,3.63c10.83-.12,22,16.88,19.69,41.6-1.29,13.89-2.27,24.84-2.39,31.72-.1,5.37.73,8.25-.34,8.22-2.45-.08-3.91-10.13-3.91-10.13a91.2,91.2,0,0,0,.17,10.63c.48,5.81,1.6,11.74-.14,11.36-3.35-.74-6.27-25.25-6.27-25.25a23.71,23.71,0,0,0-1,5.5c-.14,3.05.43,6.16-.95,5.94-2.64-.42-4.16-17.4-2.16-31.35,2.35-16.37,6.64-42.71-12.44-43.68Z" style="fill:#263238"></path><path d="M210.72,251a74.67,74.67,0,0,1,26.17,6.81s18.85,6.28,69.11,0c0,0,39.26,5.76,24.6,50.54,0,0-139.78,40.08-152.34,0S210.72,251,210.72,251Z" style="fill:#77C649"></path><path d="M210.72,251a74.67,74.67,0,0,1,26.17,6.81s18.85,6.28,69.11,0c0,0,39.26,5.76,24.6,50.54,0,0-139.78,40.08-152.34,0S210.72,251,210.72,251Z" style="fill:#fff;opacity:0.4"></path><path d="M339.25,394.09c-.63-6.95-1.63-20.47-.62-27.35,1.39-9.49-.7-13.68-8.73-25.2s15-49.75,0-67.8S294,291.28,294,291.28l-13.61,20.07s13.61-.17,21.82,15.71,21.3,28,26.17,38.56c3.38,7.33,4.89,25,0,32.29s-8.72,9.42-9.07,14.48h14s-1.16-6.92,3.57-11.76A8.29,8.29,0,0,0,339.25,394.09Z" style="fill:#77C649"></path><path d="M339.25,394.09c-.63-6.95-1.63-20.47-.62-27.35,1.39-9.49-.7-13.68-8.73-25.2s15-49.75,0-67.8S294,291.28,294,291.28l-13.61,20.07s13.61-.17,21.82,15.71,21.3,28,26.17,38.56c3.38,7.33,4.89,25,0,32.29s-8.72,9.42-9.07,14.48h14s-1.16-6.92,3.57-11.76A8.29,8.29,0,0,0,339.25,394.09Z" style="fill:#fff;opacity:0.4"></path><path d="M224.43,252.54s-12,18.2-2.88,25.92,49.34,6.67,57.46,0,4.18-19,4.18-19-25.56,1.67-45.89-2.34C237.3,257.08,227.48,252.56,224.43,252.54Z" style="fill:#263238"></path><path d="M224.43,252.54s-12,18.2-2.88,25.92,49.34,6.67,57.46,0,4.18-19,4.18-19-25.56,1.67-45.89-2.34C237.3,257.08,227.48,252.56,224.43,252.54Z" style="fill:#fff;opacity:0.5"></path><path d="M236.26,325.7c-24.89-3.13-26-14.42-26-14.42L204.67,321l-.57,3.8C213.46,326.3,224.56,326.44,236.26,325.7Z" style="opacity:0.1"></path><path d="M221.56,251c-4.05,6.06-7.92,14-7.42,21.5.82,12.46,15.38,13.11,25,14,12.15,1.08,26.61,1.72,38.15-3,9.51-3.89,10.68-15.62,9.27-24.82-.61-4-6.67-2.3-6.06,1.67-.13-.87.1,2.23.1,3a31.28,31.28,0,0,1-1.51,10.5c-1.22,3.18-4.33,4-7.49,4.89-10,2.63-21,2.36-31.16,1.56-7.14-.56-21-.21-20-10.42.58-5.53,3.48-11.11,6.53-15.69,2.25-3.37-3.19-6.52-5.42-3.17Z" style="fill:#77C649"></path><g style="opacity:0.30000000000000004"><path d="M221.56,251c-4.05,6.06-7.92,14-7.42,21.5.82,12.46,15.38,13.11,25,14,12.15,1.08,26.61,1.72,38.15-3,9.51-3.89,10.68-15.62,9.27-24.82-.61-4-6.67-2.3-6.06,1.67-.13-.87.1,2.23.1,3a31.28,31.28,0,0,1-1.51,10.5c-1.22,3.18-4.33,4-7.49,4.89-10,2.63-21,2.36-31.16,1.56-7.14-.56-21-.21-20-10.42.58-5.53,3.48-11.11,6.53-15.69,2.25-3.37-3.19-6.52-5.42-3.17Z" style="fill:#fff"></path></g><path d="M215.57,303.5l-32.48,3.84s15.15,53.4,9,90.39c0,0-8.34,8.38-9.22,14.31h14l3.48-6.11s-2.68-2.82.33-6.92a9.91,9.91,0,0,0,1.82-6.29C201.83,377.81,201,326.62,215.57,303.5Z" style="fill:#77C649"></path><path d="M215.57,303.5l-32.48,3.84s15.15,53.4,9,90.39c0,0-8.34,8.38-9.22,14.31h14l3.48-6.11s-2.68-2.82.33-6.92a9.91,9.91,0,0,0,1.82-6.29C201.83,377.81,201,326.62,215.57,303.5Z" style="fill:#fff;opacity:0.4"></path><path d="M197.08,372.82c-.75-2-2.38-1.73-3.66-1.12a131.75,131.75,0,0,1-1.37,26s-8.34,8.38-9.22,14.31h14l3.48-6.11s-2.68-2.82.33-6.92a9.91,9.91,0,0,0,1.82-6.29c-.15-3.84-.32-10.09-.24-17.64C200.45,374.05,198.15,375.72,197.08,372.82Z" style="fill:#fff;opacity:0.5"></path><path d="M186.35,404.61c-1.69,2.42-3.18,5.11-3.52,7.43h14l2.39-4.19A23.91,23.91,0,0,1,186.35,404.61Z" style="fill:#263238"></path><path d="M339.25,394.09a201.62,201.62,0,0,1-1-23c-1.64,1.16-3.24,4.12-4.38,2.14-1-1.73-2.37-.79-3.31.22,1.49,8.31,1.33,19.13-2.24,24.48-4.88,7.33-8.72,9.42-9.07,14.48h14s-1.16-6.92,3.57-11.76A8.29,8.29,0,0,0,339.25,394.09Z" style="fill:#fff;opacity:0.5"></path><path d="M322.59,405.37c-1.89,2.35-3.14,4.24-3.33,7h14a15.75,15.75,0,0,1,.07-4.42A37.94,37.94,0,0,1,322.59,405.37Z" style="fill:#263238"></path><path d="M277.8,404.78c-4,5.79-3.64,7.61-3.64,7.61h14.4l1-4.85A48.4,48.4,0,0,1,277.8,404.78Z" style="fill:#263238"></path><rect x="220.31" y="282.02" width="2.15" height="55.8" style="fill:#77C649"></rect><rect x="219.55" y="335.85" width="3.68" height="15.9" rx="0.87" style="fill:#263238"></rect><rect x="219.55" y="335.85" width="3.68" height="15.9" rx="0.87" style="fill:#fff;opacity:0.5"></rect><path d="M113.69,248.6c6.81,1,12.48,4.87,16.95,10,1.33,1.53,3.54-.7,2.22-2.22-4.77-5.46-11.05-9.74-18.34-10.79-2-.28-2.83,2.75-.83,3Z" style="fill:#77C649"></path><path d="M124.68,252c9.72-5.74,19.48-13.14,25.92-22.5,1.15-1.67-1.58-3.25-2.71-1.59-6.14,8.91-15.55,15.92-24.79,21.38a1.57,1.57,0,0,0,1.58,2.71Z" style="fill:#77C649"></path><path d="M140.8,217.15a30.34,30.34,0,0,1,6.93,29.39c-.58,1.94,2.45,2.77,3,.84A33.52,33.52,0,0,0,143,214.93c-1.4-1.46-3.62.76-2.22,2.22Z" style="fill:#77C649"></path><g style="opacity:0.30000000000000004"><path d="M113.69,248.6c6.81,1,12.48,4.87,16.95,10,1.33,1.53,3.54-.7,2.22-2.22-4.77-5.46-11.05-9.74-18.34-10.79-2-.28-2.83,2.75-.83,3Z"></path><path d="M124.68,252c9.72-5.74,19.48-13.14,25.92-22.5,1.15-1.67-1.58-3.25-2.71-1.59-6.14,8.91-15.55,15.92-24.79,21.38a1.57,1.57,0,0,0,1.58,2.71Z"></path><path d="M140.8,217.15a30.34,30.34,0,0,1,6.93,29.39c-.58,1.94,2.45,2.77,3,.84A33.52,33.52,0,0,0,143,214.93c-1.4-1.46-3.62.76-2.22,2.22Z"></path></g><path d="M134.11,212.47c6.8,4.13,20.94,28.39,18.84,12.85,0,0,16.06,18,11.35,2.27,0,0,10.21,1.46,15,16.58,3.49,11,5.59-4.36,5.59-4.36s14.13,28.82,12.39,11.34c0,0,7.33,10.47,10.64,7.85,3.57-2.81-1.22-5.58-3.14-13.61s-8.55-8.74-8.55-8.74-11.17-13.42-12.91-11c0,0-16.75-15.36-20.94-11.87,0,0-16.41-5.93-14.31-2.26C148.07,211.54,130.51,210.29,134.11,212.47Z" style="fill:#263238"></path><path d="M248.62,227.71c-7.53.89-14.86-2.66-16.34-10.54-.19-1-1.7-.57-1.52.41,1.61,8.52,9.64,12.67,17.86,11.7,1-.11,1-1.68,0-1.57Z" style="fill:#77C649"></path><g style="opacity:0.5"><path d="M248.62,227.71c-7.53.89-14.86-2.66-16.34-10.54-.19-1-1.7-.57-1.52.41,1.61,8.52,9.64,12.67,17.86,11.7,1-.11,1-1.68,0-1.57Z"></path></g><path d="M125.15,252.42c23.68,20.58,60.09,29.83,88.47,13.9,15.32-8.6,26.71-22.6,35.68-37.42a.79.79,0,0,0-1.36-.8c-14.17,23.41-35.46,44.26-64.36,44.93-17.17.4-34-6-48.27-15.15a76.81,76.81,0,0,1-9-6.58c-.76-.66-1.88.45-1.11,1.12Z" style="fill:#77C649"></path><g style="opacity:0.5"><path d="M125.15,252.42c23.68,20.58,60.09,29.83,88.47,13.9,15.32-8.6,26.71-22.6,35.68-37.42a.79.79,0,0,0-1.36-.8c-14.17,23.41-35.46,44.26-64.36,44.93-17.17.4-34-6-48.27-15.15a76.81,76.81,0,0,1-9-6.58c-.76-.66-1.88.45-1.11,1.12Z"></path></g><path d="M221.88,340.55c-2.09,2.73-4.85,7.28-11.43,9.39-1.44.46.05,4,3.53,3.24,5.77-1.21,3.15-1.5,8.07-2.47,4.17-.82,7.19-1.24,10.55-1.84l.26-.08a1.13,1.13,0,0,0,.61-1.55l-3.3-7.73-3.95-18.74-10.93,2.39Z" style="fill:#77C649"></path><path d="M246.79,235.85l-1.95,7.37s-42.45,22-43.46,35.83c-.86,11.77,11,37.3,14.21,45.8a3.24,3.24,0,0,0,3.65,1.89l5.09-.94a3,3,0,0,0,2.52-3.33c-1.59-9.05-7.46-34.19-4.41-38.74,2.19-3.25,20.13-12,35.09-16.28,10-2.85,18-3.33,21.51-9,4-6.41-.79-15.22-3.75-20.54a13.34,13.34,0,0,1-1.74-4.63Z" style="fill:#263238"></path><path d="M254.94,176.62s.17,7.93,3.45,7.59.95,4.29,4,4.37,7.09-1.91,9.42,0,5.5-2,5.67-4.72-10.17-11.12-10.17-11.12l-8.95-8.52-4.3,10.46Z" style="fill:#263238"></path><path d="M254.94,176.62s.17,7.93,3.45,7.59.95,4.29,4,4.37,7.09-1.91,9.42,0,5.5-2,5.67-4.72-10.17-11.12-10.17-11.12l-8.95-8.52-4.3,10.46Z" style="opacity:0.4"></path><path d="M262,160.37s2.45,2.61,1.19,3.35-3.45-4.43-3.45-4.43h1.53Z" style="fill:#263238"></path><path d="M262,160.37s2.45,2.61,1.19,3.35-3.45-4.43-3.45-4.43h1.53Z" style="fill:#fff;opacity:0.4"></path><path d="M258.44,169.87c.7,5,2.15,12.14,6.5,14.13,0,0,1.47,4.83-10,14.54-7.12-5.18-5.56-10.23-5.56-10.23,4.81-3.05,4.38-4.45,2.72-7.72Z" style="fill:#b97964"></path><path d="M257.23,177.23a6.85,6.85,0,0,0-1.62-2.55l-3.49,5.91a10.7,10.7,0,0,1,1.08,2.65C255.09,182.22,257.54,179.51,257.23,177.23Z" style="opacity:0.2;isolation:isolate"></path><path d="M260.82,162.56c.47,7.15.81,10.16-2.31,14.25-4.7,6.17-13.59,5.17-16.18-1.69-2.33-6.19-2.7-16.88,3.9-20.55a9.77,9.77,0,0,1,14.59,8Z" style="fill:#b97964"></path><path d="M249.74,165.85c.07.58-.18,1.09-.55,1.14s-.74-.39-.82-1,.18-1.08.55-1.13S249.64,165.3,249.74,165.85Z" style="fill:#263238"></path><path d="M243.22,166.69c.07.59-.18,1.08-.55,1.14s-.75-.39-.82-1,.18-1.08.55-1.12S243.14,166.11,243.22,166.69Z" style="fill:#263238"></path><path d="M242.57,165.74l-1.44-.22S242,166.52,242.57,165.74Z" style="fill:#263238"></path><path d="M245.37,167.48a15.75,15.75,0,0,1-1.6,4,2.55,2.55,0,0,0,2.11.13Z" style="fill:#a24e3f"></path><path d="M249.31,173.42a6.25,6.25,0,0,1-.84.17.18.18,0,0,1-.2-.14h0a.18.18,0,0,1,.16-.19,4.6,4.6,0,0,0,3.5-2.26.18.18,0,0,1,.23-.08.18.18,0,0,1,.08.23A4.83,4.83,0,0,1,249.31,173.42Z" style="fill:#263238"></path><path d="M252.2,164.2a.33.33,0,0,1-.38-.13,4.07,4.07,0,0,0-2.93-1.37.34.34,0,1,1,0-.68h0a4.64,4.64,0,0,1,3.5,1.67.34.34,0,0,1-.09.47h0A.18.18,0,0,1,252.2,164.2Z" style="fill:#263238"></path><path d="M240.88,163.93a.36.36,0,0,1-.34-.09.34.34,0,0,1,0-.48,3.38,3.38,0,0,1,3-1.11.33.33,0,0,1,.27.37v0a.34.34,0,0,1-.39.27h0a2.74,2.74,0,0,0-2.3.9A.42.42,0,0,1,240.88,163.93Z" style="fill:#263238"></path><path d="M249.11,165l-1.44-.22S248.51,165.69,249.11,165Z" style="fill:#263238"></path><path d="M263.74,215.88a43,43,0,0,1-24.65,4.32l-7.14.9a2.06,2.06,0,0,1-2.28-2.43l.61-3.2a2,2,0,0,1,.87-1.32l1.48-1a2.06,2.06,0,0,1,2-.16l4.63,2.6s10.9-1.39,17.61-6.47Z" style="fill:#b97964"></path><path d="M261.32,181.4c2.75-.72,6.08.83,7.64,8.42,2.61,12.6,1.67,26.29-7.73,28.07l-5.35-8.67s3.21-3.92.92-13.86C254.73,186.37,257.83,182.32,261.32,181.4Z" style="fill:#77C649"></path><path d="M261.32,181.4c2.75-.72,6.08.83,7.64,8.42,2.61,12.6,1.67,26.29-7.73,28.07l-5.35-8.67s3.21-3.92.92-13.86C254.73,186.37,257.83,182.32,261.32,181.4Z" style="opacity:0.30000000000000004"></path><path d="M246.2,237l27.4-3.29s-2.74-17.95,0-27.54-6.16-27.4-12-26-15.41,10.27-15.41,10.27-6.17,13-5.14,19.15S248.6,229.51,246.2,237Z" style="fill:#77C649"></path><path d="M246,191c1.4-.43,3.33-.5,3.88,2.11,0,0,4.18-9.69,14-12.55a3.49,3.49,0,0,0-2.29-.33c-5.82,1.37-15.41,10.27-15.41,10.27S246.11,190.63,246,191Z" style="fill:#77C649"></path><path d="M246,191c1.4-.43,3.33-.5,3.88,2.11,0,0,4.18-9.69,14-12.55a3.49,3.49,0,0,0-2.29-.33c-5.82,1.37-15.41,10.27-15.41,10.27S246.11,190.63,246,191Z" style="opacity:0.30000000000000004"></path><path d="M276.52,216.82s-8.79,10.9-22.35,16.1l-8,.63a1.61,1.61,0,0,1-1.66-1.22l-1.39-5.14a1.78,1.78,0,0,1,.14-1.3l.76-1.44a1.58,1.58,0,0,1,2.21-.65l6.89,4.15s10.35-6.14,14.1-14.24Z" style="fill:#b97964"></path><path d="M258.64,185.1c2.15-2,5.86-2.16,10.74,4.32,8.08,10.76,13.46,24.28,5.79,30.54l-8.78-5.67s1.11-5.3-5.48-13.68C255,193,255.91,187.67,258.64,185.1Z" style="fill:#77C649"></path><path d="M258.64,185.1c2.15-2,5.86-2.16,10.74,4.32,8.08,10.76,13.46,24.28,5.79,30.54l-8.78-5.67s1.11-5.3-5.48-13.68C255,193,255.91,187.67,258.64,185.1Z" style="opacity:0.30000000000000004"></path><path d="M252.45,158.69s.31,11.16,3,9.63,2.63,1.14,4.32,1.28.86,6.59,3.15,6.9.1,5.05,2.47,6.74,5.5,1.26,6.5,3.68,4.71.55,6-1.67c1.75-3,.13-3,1-5.83,1.88-5.83-5.64-2.24-6.37-7.18-.92-6.2-4.89-3.11-6.09-5.85-1.42-3.27-4.14-3.1-5.7-7.08S252.45,158.69,252.45,158.69Z" style="fill:#263238"></path><path d="M256.85,174.54l-.33-1.15a6.28,6.28,0,0,0,4.37-3.49c1.7-4.05-1.37-9.83-1.4-9.89l1.05-.57c.14.26,3.38,6.34,1.45,10.92A7.38,7.38,0,0,1,256.85,174.54Z" style="fill:#77C649"></path><g style="opacity:0.4"><path d="M256.85,174.54l-.33-1.15a6.28,6.28,0,0,0,4.37-3.49c1.7-4.05-1.37-9.83-1.4-9.89l1.05-.57c.14.26,3.38,6.34,1.45,10.92A7.38,7.38,0,0,1,256.85,174.54Z"></path></g><path d="M262.3,167.77a5.15,5.15,0,0,1-2.22,3.24c-1.52,1-2.81-.28-2.83-2,0-1.54.78-3.91,2.52-4.21a2.31,2.31,0,0,1,2.61,2A2.25,2.25,0,0,1,262.3,167.77Z" style="fill:#b97964"></path><path d="M256.44,159.11l-1.13.4c0,.1,3.5,10,.19,16.18a9.12,9.12,0,0,1-6.07,4.61l-1.52.17a9.15,9.15,0,0,0,3.61.37,10,10,0,0,0,5-4.58C260.12,169.56,256.6,159.53,256.44,159.11Z" style="fill:#77C649"></path><path d="M256.44,159.11l-1.13.4c0,.1,3.5,10,.19,16.18a9.12,9.12,0,0,1-6.07,4.61l-1.52.17a9.15,9.15,0,0,0,3.61.37,10,10,0,0,0,5-4.58C260.12,169.56,256.6,159.53,256.44,159.11Z" style="opacity:0.4"></path><path d="M239.87,160.37s5.91-2.74,13.95,0c0,0,6.1-.62,8.22,0,0,0-2.05-10.42-12-9.9C241.6,150.91,239.87,160.37,239.87,160.37Z" style="fill:#263238"></path><path d="M239.87,160.37s5.91-2.74,13.95,0c0,0,6.1-.62,8.22,0,0,0-2.05-10.42-12-9.9C241.6,150.91,239.87,160.37,239.87,160.37Z" style="fill:#fff;opacity:0.2"></path><path d="M239.87,160.37s-4.94,3.61,2.89,3.29,11.06-3.29,11.06-3.29S248.21,152.92,239.87,160.37Z" style="fill:#263238"></path><path d="M239.87,160.37s-4.94,3.61,2.89,3.29,11.06-3.29,11.06-3.29S248.21,152.92,239.87,160.37Z" style="fill:#fff;opacity:0.4"></path><path d="M254.72,150.62c0,.87-1.52-.1-3.4-.1s-3.4,1-3.4.1,1.52-1.56,3.4-1.56S254.72,149.76,254.72,150.62Z" style="fill:#263238"></path></g></svg>