<?xml version="1.0"?>
<svg xmlns="http://www.w3.org/2000/svg" xmlns:xlink="http://www.w3.org/1999/xlink" xmlns:svgjs="http://svgjs.com/svgjs" version="1.1" width="512" height="512" x="0" y="0" viewBox="0 0 512.00101 512" style="enable-background:new 0 0 512 512" xml:space="preserve" class=""><g><path xmlns="http://www.w3.org/2000/svg" d="m278.359375 10c-28.011719 0-53.5625 10.800781-72.914063 28.558594-3.722656 3.417968-9.402343 3.417968-13.121093 0-19.355469-17.757813-44.90625-28.558594-72.917969-28.558594-60.421875 0-109.40625 50.242188-109.40625 112.21875 0 71.589844 128.457031 177.5 173.5 212.4375 9.058594 7.023438 21.710938 7.023438 30.765625 0 45.046875-34.9375 173.5-140.847656 173.5-212.4375 0-61.976562-48.980469-112.21875-109.40625-112.21875zm0 0" fill="#ff6969" data-original="#ff5d5d" style="" class=""/><path xmlns="http://www.w3.org/2000/svg" d="m378.089844 411.917969 83.09375 83.09375c9.335937 9.335937 24.476562 9.335937 33.8125 0 9.335937-9.335938 9.335937-24.476563 0-33.8125l-83.09375-83.09375zm0 0" fill="#ff6969" data-original="#ff5d5d" style="" class=""/><path xmlns="http://www.w3.org/2000/svg" d="m430.003906 310.007812c0 66.277344-53.730468 120.003907-120.003906 120.003907-66.277344 0-120.003906-53.726563-120.003906-120.003907 0-66.273437 53.726562-120 120.003906-120 66.273438 0 120.003906 53.726563 120.003906 120zm0 0" fill="#ffffff" data-original="#ffffff" style="" class=""/><path xmlns="http://www.w3.org/2000/svg" d="m388 310.007812c0 43.082032-34.921875 78.003907-78 78.003907-43.082031 0-78.003906-34.921875-78.003906-78.003907 0-43.078124 34.921875-78 78.003906-78 43.078125 0 78 34.921876 78 78zm0 0" fill="#a7e7ff" data-original="#72d8ff" style="" class=""/><path xmlns="http://www.w3.org/2000/svg" d="m261.683594 80.21875c1.046875 0 2.113281-.167969 3.164062-.519531.046875-.011719.089844-.03125.136719-.042969 5.15625-1.796875 7.929687-7.410156 6.195313-12.605469-1.746094-5.242187-7.410157-8.070312-12.648438-6.328125-.042969.015625-.089844.03125-.136719.046875-5.15625 1.796875-7.929687 7.410157-6.195312 12.605469 1.394531 4.191406 5.296875 6.84375 9.484375 6.84375zm0 0" fill="#000000" data-original="#000000" style="" class=""/><path xmlns="http://www.w3.org/2000/svg" d="m291.65625 78.886719c17.921875 5.511719 30.4375 22.851562 30.4375 42.167969 0 5.523437 4.476562 10 10 10s10-4.476563 10-10v-.695313c0-.15625 0-.308594-.007812-.460937-.496094-27.546876-18.675782-52.167969-44.546876-60.128907-5.277343-1.621093-10.875 1.339844-12.5 6.621094-1.621093 5.277344 1.339844 10.871094 6.617188 12.496094zm0 0" fill="#000000" data-original="#000000" style="" class=""/><path xmlns="http://www.w3.org/2000/svg" d="m310 222.007812c-48.523438 0-88.003906 39.476563-88.003906 88 0 48.527344 39.480468 88.003907 88.003906 88.003907s88-39.476563 88-88.003907c0-48.523437-39.476562-88-88-88zm0 156.003907c-37.496094 0-68.003906-30.507813-68.003906-68.003907 0-37.496093 30.507812-68 68.003906-68s68 30.503907 68 68c0 37.496094-30.503906 68.003907-68 68.003907zm0 0" fill="#000000" data-original="#000000" style="" class=""/><path xmlns="http://www.w3.org/2000/svg" d="m502.070312 454.128906-23.457031-23.457031c-3.90625-3.90625-10.238281-3.90625-14.140625 0-3.90625 3.90625-3.90625 10.238281 0 14.144531l23.453125 23.453125c2.628907 2.628907 4.074219 6.121094 4.074219 9.835938 0 3.714843-1.445312 7.207031-4.074219 9.835937-5.421875 5.421875-14.246093 5.425782-19.667969 0l-76.742187-76.742187c29.550781-23.851563 48.488281-60.347657 48.488281-101.191407 0-50.105468-28.5-93.675781-70.136718-115.371093 18.519531-27.417969 27.902343-51.757813 27.902343-72.417969 0-67.390625-53.566406-122.21875-119.40625-122.21875-29.375 0-57.585937 11.011719-79.476562 31.007812-21.890625-19.996093-50.105469-31.007812-79.480469-31.007812-65.839844 0-119.40625 54.824219-119.40625 122.21875 0 33.378906 24.425781 76.054688 72.601562 126.847656 38.195313 40.265625 82.035157 75.859375 104.769532 93.492188 2.46875 1.914062 5.183594 3.472656 8.0625 4.667968 16.042968 53.605469 65.8125 92.785157 124.566406 92.785157 23.554688 0 45.667969-6.296875 64.742188-17.296875l79.371093 79.371094c6.609375 6.609374 15.292969 9.914062 23.976563 9.914062s17.367187-3.304688 23.980468-9.914062c6.402344-6.40625 9.929688-14.921876 9.929688-23.980469 0-9.058594-3.527344-17.574219-9.929688-23.976563zm-414.957031-218.828125c-43.90625-46.289062-67.113281-85.394531-67.113281-113.082031 0-56.363281 44.59375-102.21875 99.40625-102.21875 24.441406 0 47.933594 9.210938 66.152344 25.929688 7.597656 6.96875 19.050781 6.96875 26.648437 0 18.21875-16.71875 41.714844-25.929688 66.152344-25.929688 54.8125 0 99.40625 45.855469 99.40625 102.21875 0 17.371094-8.996094 39.050781-26.695313 64.441406-12.917968-4.3125-26.726562-6.65625-41.070312-6.65625-71.683594 0-130.003906 58.320313-130.003906 130.003906 0 3.179688.121094 6.332032.34375 9.453126-23.660156-18.789063-60.609375-49.773438-93.226563-84.160157zm112.882813 74.707031c0-60.65625 49.347656-110.003906 110.003906-110.003906s110.003906 49.347656 110.003906 110.003906-49.347656 110.003907-110.003906 110.003907-110.003906-49.347657-110.003906-110.003907zm0 0" fill="#000000" data-original="#000000" style="" class=""/><path xmlns="http://www.w3.org/2000/svg" d="m310 265.011719c-5.523438 0-10 4.480469-10 10 0 5.523437 4.476562 10 10 10 13.78125 0 24.996094 11.214843 24.996094 24.996093 0 5.523438 4.476562 10 10 10 5.523437 0 10-4.476562 10-10 0-24.808593-20.1875-44.996093-44.996094-44.996093zm0 0" fill="#000000" data-original="#000000" style="" class=""/><path xmlns="http://www.w3.org/2000/svg" d="m432.539062 408.742188c0 2.628906 1.070313 5.210937 2.929688 7.070312s4.4375 2.929688 7.070312 2.929688c2.628907 0 5.210938-1.070313 7.070313-2.929688 1.867187-1.859375 2.929687-4.441406 2.929687-7.070312 0-2.628907-1.0625-5.210938-2.929687-7.070313-1.859375-1.859375-4.429687-2.929687-7.070313-2.929687-2.632812 0-5.210937 1.070312-7.070312 2.929687-1.859375 1.863281-2.929688 4.441406-2.929688 7.070313zm0 0" fill="#000000" data-original="#000000" style="" class=""/></g></svg>
